# xmcd
#
# Track frame offsets: 
#        150
#        12220
#        27063
#        40497
#        60100
#        82835
#        93794
#        107315
#        121632
#        141857
#        153815
#        170332
#        184792
#        194951
#        206987
#        219530
#        230517
#        259198
#
# Disc length: 3794 seconds
#
# Revision: 1
# Processed by: cddbd v1.5.2PL0 Copyright (c) Steve Scherf et al.
# Submitted via: ExactAudioCopy v0.95a5
#
DISCID=e50ed012
DTITLE=Various Artist - Jazz After Dark - cd 2-2
DYEAR=2004
DGENRE=Jazz
TTITLE0=Dizzy Gillespie - Tin Tin Deo
TTITLE1=Hot Lips Page - Uncle Sam's Blues
TTITLE2=Lester Young - These Foolish Things
TTITLE3=Modern Jazz Quartet - Blues Mood
TTITLE4=Richard "Groove" Holmes - Cheeka's Dance
TTITLE5=Little Esther - Longing In My Heart
TTITLE6=Marian McPartland - Gypsy In My Soul
TTITLE7=Charly Parker - My Old Flame
TTITLE8=Mark Murphy - Parker's Mood
TTITLE9=Stan Getz - Don't Worry 'Bout Me
TTITLE10=Astrud Gilberto - Champagne And Caviar
TTITLE11=George Shearing - Moon Over Miami
TTITLE12=Charlie Byrd - Spanish Guitar Blues
TTITLE13=Erroll Garner - The Man I Love
TTITLE14=Johnny Hartman - Just You, Just Me
TTITLE15=Jimmy Scott - Someone To Watch Over Me
TTITLE16=Cannonball Adderley - Willow Weep For Me
TTITLE17=Kenny Burrell - Listen To The Dawn
EXTD=
EXTT0=
EXTT1=
EXTT2=
EXTT3=
EXTT4=
EXTT5=
EXTT6=
EXTT7=
EXTT8=
EXTT9=
EXTT10=
EXTT11=
EXTT12=
EXTT13=
EXTT14=
EXTT15=
EXTT16=
EXTT17=
PLAYORDER=
